PathFileType	4	(X/Y/Z)	Patient4_TMGait_0pt3_03_left_05.trc.trc
DataRate	CameraRate	NumFrames	NumMarkers	Units	OrigDataRate	OrigDataStartFrame	OrigNumFrames
53.231939163498	53.231939163498	4	33	mm	53.231939163498	89	       141
Frame#	Time	Sacral			L.Shoulder			Chest			R.Shoulder			Neck			R.ASIS			L.ASIS			R.Thigh.Superior			R.Thigh.Lateral			R.Thigh.Inferior			R.Patella			L.Thigh.Superior			L.Thigh.Lateral			L.Thigh.Inferior			L.Patella			L.Shank.Superior			L.Shank.Lateral			L.Shank.Inferior			R.Shank.Superior			R.Shank.Lateral			R.Shank.Inferior			R.Heel			R.Midfoot.Superior			R.Midfoot.Lateral			R.Toe			L.Heel			L.Midfoot.Lateral			L.Midfoot.Superior			L.Toe			L.Elbow			L.Wrist			R.Elbow			R.Wrist			
		X1	Y1	Z1	X2	Y2	Z2	X3	Y3	Z3	X4	Y4	Z4	X5	Y5	Z5	X6	Y6	Z6	X7	Y7	Z7	X8	Y8	Z8	X9	Y9	Z9	X10	Y10	Z10	X11	Y11	Z11	X12	Y12	Z12	X13	Y13	Z13	X14	Y14	Z14	X15	Y15	Z15	X16	Y16	Z16	X17	Y17	Z17	X18	Y18	Z18	X19	Y19	Z19	X20	Y20	Z20	X21	Y21	Z21	X22	Y22	Z22	X23	Y23	Z23	X24	Y24	Z24	X25	Y25	Z25	X26	Y26	Z26	X27	Y27	Z27	X28	Y28	Z28	X29	Y29	Z29	X30	Y30	Z30	X31	Y31	Z31	X32	Y32	Z32	X33	Y33	Z33	

89	10.053142857143	761.859890975635	1013.877453835088	498.907292846235	997.772939761107	1440.688408326851	373.380566268972	1057.349501837104	1360.248161051045	549.713313616164	940.610259884638	1434.990591517400	702.392276175852	936.975419491674	1493.610405561083	526.095532467838	966.724686802841	937.707792162457	653.414888087838	997.696651747434	959.715073006281	382.396528842109	1022.328448720417	744.287030167791	616.913520438462	944.808308263531	630.039434679528	667.451730190223	1030.102901991510	583.594443425374	590.265388843842	1037.882373728595	493.711521730867	595.051252499658	1002.206500597500	729.562346023822	401.113072671857	900.688999294326	629.938774925601	323.506496059978	964.559509454159	536.292482499180	387.955364979031	950.678556662641	460.586631606805	387.570399979682	896.044306716201	402.856485807818	375.769682819962	772.472748944566	331.086077307804	316.188384840481	779.711306755476	203.151410675768	376.122395425638	1005.910160660502	404.813374411328	599.149449069001	932.792210952354	302.738198497482	662.391454843903	969.859442991963	207.031470730784	596.944455579706	829.625586242337	44.649241639326	572.612752637283	1003.018284674112	97.275859128255	601.561515268392	915.853663858235	37.916168056130	643.181485619759	1123.576583648919	42.148782696609	624.704248670270	606.765632795855	87.842459338207	402.062999097103	682.080409621844	63.760304900044	327.912027228412	776.134336951633	105.439533323211	357.380462966334	887.795115781342	35.860007097725	338.048266473642	1108.463190084241	1131.943506412419	220.556552519626	1362.780217698022	1094.121520723830	258.339433466925	785.350840775939	1117.663376059149	778.034911363437	759.738461220988	859.269250931376	804.097350185611	
90	10.071928571429	761.747884110438	1014.047336981636	503.932479796027	995.894661164453	1441.183131709852	376.435367122279	1057.050738580305	1360.798915866968	552.322122173957	941.380078494842	1435.150344458884	705.851643942596	936.320999634993	1494.084772471001	529.490479814662	967.737593243964	937.858563847598	656.938769932372	996.745880833418	960.210788294402	385.760087411411	1021.760851790577	743.438097251510	620.155043033328	943.164928190369	629.687809390918	670.311476259302	1027.962542773819	582.803726133123	592.920265722665	1034.931632824053	492.887378101507	597.192401237155	1005.027370923116	731.088844365730	404.263833330975	905.819279074142	629.828700966821	326.556725080324	972.072869826816	536.839979831335	390.592472421617	958.791633884442	459.831971318601	389.213607821064	902.000581667060	402.778086019332	377.544471509552	776.224307699276	335.005670873224	318.058293128760	780.514596145533	206.412972364023	376.609850012113	1002.439387028651	404.222181299690	600.824000026340	928.853721154948	302.257323498806	663.672378435095	965.222988690738	206.696807340721	597.627298537595	824.168312518763	44.612327839497	572.737475529690	997.605071317937	97.299645996608	601.797753565730	910.441378473566	37.860458786100	643.258158816329	1118.158721735229	42.001477153720	624.780283197455	604.344576925783	97.111728920973	401.987405598327	678.617828301190	69.960607553642	327.925934300797	774.176881315972	107.899364147658	357.280246049530	882.379438382153	35.209450396712	338.298870023127	1104.299295101785	1130.691846685691	224.517634255233	1357.945540838609	1084.993137169443	260.350478016654	789.649665839642	1116.719206234422	785.341407216612	767.525953015340	858.323167219519	813.934849451168	
91	10.090714285714	761.354742579889	1014.020420528353	508.917513246504	993.648172909183	1441.466079043227	379.228435229604	1056.509133679724	1361.138995492934	554.607268772436	942.023241035265	1435.060197382250	709.064796842209	935.465097717832	1494.373614777638	532.658333140833	968.622387974522	937.859677351719	660.246829419706	995.427736896579	960.535076882339	388.877477943307	1021.228112489174	742.569767225748	623.168068290101	941.685273220388	629.243753958706	672.995483629028	1026.007712616168	581.981289748007	595.390733301872	1032.208436367895	491.975453769820	599.196739148223	1008.088367011051	732.739846146940	407.417656628764	911.654059366314	629.609988247432	329.630556389144	980.402335141536	537.532014642491	393.463001113457	967.809404454414	459.173513154332	391.127401227515	908.876906776719	402.709480663740	379.510713752381	780.971059083415	339.217638062337	320.014763352056	781.960886314235	210.116390611030	377.278952607486	999.120532019962	403.542488463724	602.383138614682	924.999252819893	301.754748377606	664.839292384335	960.601304756259	206.312736841752	598.244544181000	818.624391212380	44.596550516917	572.837197941873	992.116302392703	97.314723505534	601.999439994440	904.937282399399	37.831088498095	643.321794870857	1112.646406480895	41.871115248078	624.840070326875	602.516192811919	107.465468880617	401.976987118806	675.596105585728	77.163423678170	327.993264502550	772.614607195183	110.952153050109	357.340294136653	876.992016710253	34.472761472362	338.613342750874	1099.358138880177	1128.933615779486	228.454794039926	1351.854614878248	1074.118748976131	262.035986268087	794.485683399370	1115.265802584593	792.514025374260	776.169272135503	856.882230140022	823.541347551303	
92	10.109500000000	760.698887694219	1013.771446410262	513.864127267199	991.038757832626	1441.517411111394	381.756206550263	1055.721850419861	1361.254308728393	556.564592174122	942.540900248648	1434.718220393346	712.026471217907	934.404030371235	1494.459165866444	535.592688173180	969.403340579847	937.709095135177	663.323755953393	993.749021840170	960.681852793584	391.740085708333	1020.801598508218	741.686015594282	625.919584718755	940.463605205723	628.682859145149	675.455901846988	1024.326735647514	581.119253107083	597.606236747676	1029.825874344770	490.950048506119	600.984639419411	1011.332990287637	734.529821988560	410.612444507001	918.131291433811	629.342619168795	332.746071696417	989.415257417280	538.433247988877	396.615922293215	977.614914408067	458.691859299748	393.366540519845	916.589835449093	402.711173694278	381.699091345485	786.658301738282	343.727931836816	322.096576122204	784.050143753745	214.270574884662	378.165147134743	996.041054260127	402.751642789426	603.763756646649	921.304211138204	301.225478930995	665.848011136305	956.033204172457	205.863388616685	598.761333824121	813.001140075585	44.598092570424	572.910512656918	986.554030301904	97.313414409141	602.157676967405	899.345342724751	37.822054257595	643.373275129096	1107.048927601964	41.752241389135	624.892360629034	601.371275872671	118.792155548209	402.108578936169	673.114490116402	85.339087795752	328.164599590296	771.507846868695	114.634982920793	357.590270132129	871.741648846514	33.698634203415	338.962471633552	1093.646731909719	1126.659703954831	232.375171617649	1344.331196298199	1061.494603445357	263.436392501661	799.915555702407	1113.284833425594	799.476329738406	785.781480736158	854.932418204808	832.840381239539	
